<mxfile host="app.diagrams.net" modified="2021-01-22T13:21:07.670Z" agent="5.0 (Windows NT 6.3; Win64; x64) AppleWebKit/537.36 (KHTML, like Gecko) Chrome/87.0.4280.141 Safari/537.36" etag="deVkb_N9o3yQBkZppM4Z" version="14.2.6" type="github">
  <diagram id="cMXxAy-fa4Ai1pwRBQnS" name="Page-1">
    <mxGraphModel dx="1115" dy="459" grid="1" gridSize="10" guides="1" tooltips="1" connect="1" arrows="1" fold="1" page="1" pageScale="1" pageWidth="850" pageHeight="1100" math="0" shadow="0">
      <root>
        <mxCell id="0" />
        <mxCell id="1" parent="0" />
        <mxCell id="gyVBBkJgk_4Mc_BeFqA9-24" value="Contact" style="swimlane;fontStyle=1;align=center;verticalAlign=top;childLayout=stackLayout;horizontal=1;startSize=26;horizontalStack=0;resizeParent=1;resizeParentMax=0;resizeLast=0;collapsible=1;marginBottom=0;" parent="1" vertex="1">
          <mxGeometry x="280" y="60" width="250" height="206" as="geometry" />
        </mxCell>
        <mxCell id="gyVBBkJgk_4Mc_BeFqA9-25" value="- name:String&#xa;&#xa;- phoneNo:String&#xa;&#xa;- emailId:String&#xa;" style="text;strokeColor=none;fillColor=none;align=left;verticalAlign=top;spacingLeft=4;spacingRight=4;overflow=hidden;rotatable=0;points=[[0,0.5],[1,0.5]];portConstraint=eastwest;" parent="gyVBBkJgk_4Mc_BeFqA9-24" vertex="1">
          <mxGeometry y="26" width="250" height="84" as="geometry" />
        </mxCell>
        <mxCell id="gyVBBkJgk_4Mc_BeFqA9-26" value="" style="line;strokeWidth=1;fillColor=none;align=left;verticalAlign=middle;spacingTop=-1;spacingLeft=3;spacingRight=3;rotatable=0;labelPosition=right;points=[];portConstraint=eastwest;" parent="gyVBBkJgk_4Mc_BeFqA9-24" vertex="1">
          <mxGeometry y="110" width="250" height="30" as="geometry" />
        </mxCell>
        <mxCell id="gyVBBkJgk_4Mc_BeFqA9-27" value="+ getContactDetails():String&#xa;&#xa;+updateContactDetails(contact String):void" style="text;strokeColor=none;fillColor=none;align=left;verticalAlign=top;spacingLeft=4;spacingRight=4;overflow=hidden;rotatable=0;points=[[0,0.5],[1,0.5]];portConstraint=eastwest;" parent="gyVBBkJgk_4Mc_BeFqA9-24" vertex="1">
          <mxGeometry y="140" width="250" height="66" as="geometry" />
        </mxCell>
        <mxCell id="gyVBBkJgk_4Mc_BeFqA9-37" style="edgeStyle=orthogonalEdgeStyle;rounded=0;orthogonalLoop=1;jettySize=auto;html=1;exitX=1;exitY=0;exitDx=0;exitDy=0;entryX=1;entryY=0;entryDx=0;entryDy=0;" parent="1" source="gyVBBkJgk_4Mc_BeFqA9-28" target="gyVBBkJgk_4Mc_BeFqA9-28" edge="1">
          <mxGeometry relative="1" as="geometry">
            <mxPoint x="820" y="50" as="targetPoint" />
          </mxGeometry>
        </mxCell>
        <mxCell id="gyVBBkJgk_4Mc_BeFqA9-28" value="Address" style="swimlane;fontStyle=1;align=center;verticalAlign=top;childLayout=stackLayout;horizontal=1;startSize=26;horizontalStack=0;resizeParent=1;resizeParentMax=0;resizeLast=0;collapsible=1;marginBottom=0;" parent="1" vertex="1">
          <mxGeometry x="597" y="60" width="263" height="206" as="geometry" />
        </mxCell>
        <mxCell id="gyVBBkJgk_4Mc_BeFqA9-29" value="- street : String&#xa;&#xa;- city : String&#xa;&#xa;- state : String&#xa;" style="text;strokeColor=none;fillColor=none;align=left;verticalAlign=top;spacingLeft=4;spacingRight=4;overflow=hidden;rotatable=0;points=[[0,0.5],[1,0.5]];portConstraint=eastwest;" parent="gyVBBkJgk_4Mc_BeFqA9-28" vertex="1">
          <mxGeometry y="26" width="263" height="84" as="geometry" />
        </mxCell>
        <mxCell id="gyVBBkJgk_4Mc_BeFqA9-30" value="" style="line;strokeWidth=1;fillColor=none;align=left;verticalAlign=middle;spacingTop=-1;spacingLeft=3;spacingRight=3;rotatable=0;labelPosition=right;points=[];portConstraint=eastwest;" parent="gyVBBkJgk_4Mc_BeFqA9-28" vertex="1">
          <mxGeometry y="110" width="263" height="30" as="geometry" />
        </mxCell>
        <mxCell id="gyVBBkJgk_4Mc_BeFqA9-31" value="+ getAddressDetails:String&#xa;&#xa;+updateAddressDetails(address String):void" style="text;strokeColor=none;fillColor=none;align=left;verticalAlign=top;spacingLeft=4;spacingRight=4;overflow=hidden;rotatable=0;points=[[0,0.5],[1,0.5]];portConstraint=eastwest;" parent="gyVBBkJgk_4Mc_BeFqA9-28" vertex="1">
          <mxGeometry y="140" width="263" height="66" as="geometry" />
        </mxCell>
        <mxCell id="gyVBBkJgk_4Mc_BeFqA9-36" style="edgeStyle=orthogonalEdgeStyle;rounded=0;orthogonalLoop=1;jettySize=auto;html=1;exitX=1;exitY=0.5;exitDx=0;exitDy=0;" parent="gyVBBkJgk_4Mc_BeFqA9-28" source="gyVBBkJgk_4Mc_BeFqA9-31" target="gyVBBkJgk_4Mc_BeFqA9-31" edge="1">
          <mxGeometry relative="1" as="geometry" />
        </mxCell>
        <mxCell id="gyVBBkJgk_4Mc_BeFqA9-32" value="passenger" style="swimlane;fontStyle=1;align=center;verticalAlign=top;childLayout=stackLayout;horizontal=1;startSize=26;horizontalStack=0;resizeParent=1;resizeParentMax=0;resizeLast=0;collapsible=1;marginBottom=0;" parent="1" vertex="1">
          <mxGeometry x="460" y="370" width="190" height="206" as="geometry" />
        </mxCell>
        <mxCell id="gyVBBkJgk_4Mc_BeFqA9-33" value="- id:String&#xa;&#xa;- contact:String&#xa;&#xa;- address:String&#xa;" style="text;strokeColor=none;fillColor=none;align=left;verticalAlign=top;spacingLeft=4;spacingRight=4;overflow=hidden;rotatable=0;points=[[0,0.5],[1,0.5]];portConstraint=eastwest;" parent="gyVBBkJgk_4Mc_BeFqA9-32" vertex="1">
          <mxGeometry y="26" width="190" height="84" as="geometry" />
        </mxCell>
        <mxCell id="gyVBBkJgk_4Mc_BeFqA9-34" value="" style="line;strokeWidth=1;fillColor=none;align=left;verticalAlign=middle;spacingTop=-1;spacingLeft=3;spacingRight=3;rotatable=0;labelPosition=right;points=[];portConstraint=eastwest;" parent="gyVBBkJgk_4Mc_BeFqA9-32" vertex="1">
          <mxGeometry y="110" width="190" height="30" as="geometry" />
        </mxCell>
        <mxCell id="gyVBBkJgk_4Mc_BeFqA9-35" value="+ getContact(void):contact&#xa;&#xa;+getAddress(void):address" style="text;strokeColor=none;fillColor=none;align=left;verticalAlign=top;spacingLeft=4;spacingRight=4;overflow=hidden;rotatable=0;points=[[0,0.5],[1,0.5]];portConstraint=eastwest;" parent="gyVBBkJgk_4Mc_BeFqA9-32" vertex="1">
          <mxGeometry y="140" width="190" height="66" as="geometry" />
        </mxCell>
        <mxCell id="gyVBBkJgk_4Mc_BeFqA9-40" value="" style="endArrow=diamondThin;endFill=1;endSize=24;html=1;exitX=0.544;exitY=1.015;exitDx=0;exitDy=0;exitPerimeter=0;" parent="1" source="gyVBBkJgk_4Mc_BeFqA9-27" edge="1">
          <mxGeometry width="160" relative="1" as="geometry">
            <mxPoint x="340" y="490" as="sourcePoint" />
            <mxPoint x="530" y="360" as="targetPoint" />
          </mxGeometry>
        </mxCell>
        <mxCell id="gyVBBkJgk_4Mc_BeFqA9-41" value="" style="endArrow=diamondThin;endFill=1;endSize=24;html=1;" parent="1" source="gyVBBkJgk_4Mc_BeFqA9-31" edge="1">
          <mxGeometry width="160" relative="1" as="geometry">
            <mxPoint x="670" y="278.97" as="sourcePoint" />
            <mxPoint x="560" y="360" as="targetPoint" />
            <Array as="points" />
          </mxGeometry>
        </mxCell>
        <mxCell id="gyVBBkJgk_4Mc_BeFqA9-46" value="Ticket" style="swimlane;fontStyle=1;align=center;verticalAlign=top;childLayout=stackLayout;horizontal=1;startSize=26;horizontalStack=0;resizeParent=1;resizeParentMax=0;resizeLast=0;collapsible=1;marginBottom=0;" parent="1" vertex="1">
          <mxGeometry x="450" y="630" width="210" height="460" as="geometry" />
        </mxCell>
        <mxCell id="gyVBBkJgk_4Mc_BeFqA9-47" value="- pnrNum:String&#xa;&#xa;- departureLocation:String&#xa;&#xa;- destinationLocation:String&#xa;&#xa;- emailId:String&#xa;&#xa;- flight:Flight&#xa;&#xa;- dateTimeOfDeparture:String&#xa;&#xa;- dateTimeOfArrival:String&#xa;&#xa;- passenger:Passenger&#xa;&#xa;- seatNo:int&#xa;&#xa;- priceOfTicket:double&#xa;&#xa;- ticketStatus:boolean&#xa;&#xa;&#xa;&#xa;&#xa;&#xa;&#xa;&#xa;&#xa;&#xa;" style="text;strokeColor=none;fillColor=none;align=left;verticalAlign=top;spacingLeft=4;spacingRight=4;overflow=hidden;rotatable=0;points=[[0,0.5],[1,0.5]];portConstraint=eastwest;" parent="gyVBBkJgk_4Mc_BeFqA9-46" vertex="1">
          <mxGeometry y="26" width="210" height="304" as="geometry" />
        </mxCell>
        <mxCell id="gyVBBkJgk_4Mc_BeFqA9-48" value="" style="line;strokeWidth=1;fillColor=none;align=left;verticalAlign=middle;spacingTop=-1;spacingLeft=3;spacingRight=3;rotatable=0;labelPosition=right;points=[];portConstraint=eastwest;" parent="gyVBBkJgk_4Mc_BeFqA9-46" vertex="1">
          <mxGeometry y="330" width="210" height="30" as="geometry" />
        </mxCell>
        <mxCell id="gyVBBkJgk_4Mc_BeFqA9-49" value="+ checkStatus():boolean&#xa;&#xa;+ getJourneyDuration():String&#xa;&#xa;+ cancelTicket():void" style="text;strokeColor=none;fillColor=none;align=left;verticalAlign=top;spacingLeft=4;spacingRight=4;overflow=hidden;rotatable=0;points=[[0,0.5],[1,0.5]];portConstraint=eastwest;" parent="gyVBBkJgk_4Mc_BeFqA9-46" vertex="1">
          <mxGeometry y="360" width="210" height="100" as="geometry" />
        </mxCell>
        <mxCell id="gyVBBkJgk_4Mc_BeFqA9-55" value="Regular" style="swimlane;fontStyle=1;align=center;verticalAlign=top;childLayout=stackLayout;horizontal=1;startSize=26;horizontalStack=0;resizeParent=1;resizeParentMax=0;resizeLast=0;collapsible=1;marginBottom=0;" parent="1" vertex="1">
          <mxGeometry x="270" y="1190" width="270" height="146" as="geometry" />
        </mxCell>
        <mxCell id="gyVBBkJgk_4Mc_BeFqA9-56" value="- specialServices:String&#xa;" style="text;strokeColor=none;fillColor=none;align=left;verticalAlign=top;spacingLeft=4;spacingRight=4;overflow=hidden;rotatable=0;points=[[0,0.5],[1,0.5]];portConstraint=eastwest;" parent="gyVBBkJgk_4Mc_BeFqA9-55" vertex="1">
          <mxGeometry y="26" width="270" height="20" as="geometry" />
        </mxCell>
        <mxCell id="gyVBBkJgk_4Mc_BeFqA9-57" value="" style="line;strokeWidth=1;fillColor=none;align=left;verticalAlign=middle;spacingTop=-1;spacingLeft=3;spacingRight=3;rotatable=0;labelPosition=right;points=[];portConstraint=eastwest;" parent="gyVBBkJgk_4Mc_BeFqA9-55" vertex="1">
          <mxGeometry y="46" width="270" height="30" as="geometry" />
        </mxCell>
        <mxCell id="gyVBBkJgk_4Mc_BeFqA9-58" value="+getSpecialService():String&#xa;&#xa;+ updateSpecialServices(SpecialService:String):void&#xa;" style="text;strokeColor=none;fillColor=none;align=left;verticalAlign=top;spacingLeft=4;spacingRight=4;overflow=hidden;rotatable=0;points=[[0,0.5],[1,0.5]];portConstraint=eastwest;" parent="gyVBBkJgk_4Mc_BeFqA9-55" vertex="1">
          <mxGeometry y="76" width="270" height="70" as="geometry" />
        </mxCell>
        <mxCell id="gyVBBkJgk_4Mc_BeFqA9-64" value="Tourist" style="swimlane;fontStyle=1;align=center;verticalAlign=top;childLayout=stackLayout;horizontal=1;startSize=26;horizontalStack=0;resizeParent=1;resizeParentMax=0;resizeLast=0;collapsible=1;marginBottom=0;" parent="1" vertex="1">
          <mxGeometry x="640" y="1190" width="350" height="250" as="geometry" />
        </mxCell>
        <mxCell id="gyVBBkJgk_4Mc_BeFqA9-65" value="- hotelAddress:Address&#xa;&#xa;- touristLocation:String[0...5]&#xa;&#xa;&#xa;" style="text;strokeColor=none;fillColor=none;align=left;verticalAlign=top;spacingLeft=4;spacingRight=4;overflow=hidden;rotatable=0;points=[[0,0.5],[1,0.5]];portConstraint=eastwest;" parent="gyVBBkJgk_4Mc_BeFqA9-64" vertex="1">
          <mxGeometry y="26" width="350" height="54" as="geometry" />
        </mxCell>
        <mxCell id="gyVBBkJgk_4Mc_BeFqA9-66" value="" style="line;strokeWidth=1;fillColor=none;align=left;verticalAlign=middle;spacingTop=-1;spacingLeft=3;spacingRight=3;rotatable=0;labelPosition=right;points=[];portConstraint=eastwest;" parent="gyVBBkJgk_4Mc_BeFqA9-64" vertex="1">
          <mxGeometry y="80" width="350" height="30" as="geometry" />
        </mxCell>
        <mxCell id="gyVBBkJgk_4Mc_BeFqA9-67" value="+ getHotelAddress(void):Address&#xa;&#xa;+ setHotelAddress(address Address):void&#xa;&#xa;+ addTouristLocation(touristLocation:String):void&#xa;&#xa;+ removeTouristLocation(touristLocation:String):void&#xa;&#xa;" style="text;strokeColor=none;fillColor=none;align=left;verticalAlign=top;spacingLeft=4;spacingRight=4;overflow=hidden;rotatable=0;points=[[0,0.5],[1,0.5]];portConstraint=eastwest;" parent="gyVBBkJgk_4Mc_BeFqA9-64" vertex="1">
          <mxGeometry y="110" width="350" height="140" as="geometry" />
        </mxCell>
        <mxCell id="gyVBBkJgk_4Mc_BeFqA9-75" value="" style="edgeStyle=none;html=1;endSize=12;endArrow=block;endFill=0;exitX=0.5;exitY=0;exitDx=0;exitDy=0;" parent="1" source="gyVBBkJgk_4Mc_BeFqA9-55" edge="1">
          <mxGeometry width="160" relative="1" as="geometry">
            <mxPoint x="410" y="1180" as="sourcePoint" />
            <mxPoint x="496" y="1090" as="targetPoint" />
            <Array as="points" />
          </mxGeometry>
        </mxCell>
        <mxCell id="gyVBBkJgk_4Mc_BeFqA9-76" value="" style="edgeStyle=none;html=1;endSize=12;endArrow=block;endFill=0;entryX=0.757;entryY=1.01;entryDx=0;entryDy=0;entryPerimeter=0;exitX=0.294;exitY=-0.008;exitDx=0;exitDy=0;exitPerimeter=0;" parent="1" source="gyVBBkJgk_4Mc_BeFqA9-64" target="gyVBBkJgk_4Mc_BeFqA9-49" edge="1">
          <mxGeometry width="160" relative="1" as="geometry">
            <mxPoint x="740" y="1180" as="sourcePoint" />
            <mxPoint x="610" y="1099" as="targetPoint" />
            <Array as="points" />
          </mxGeometry>
        </mxCell>
        <mxCell id="gyVBBkJgk_4Mc_BeFqA9-77" value="" style="endArrow=diamondThin;endFill=0;endSize=24;html=1;" parent="1" target="gyVBBkJgk_4Mc_BeFqA9-46" edge="1">
          <mxGeometry width="160" relative="1" as="geometry">
            <mxPoint x="544" y="580" as="sourcePoint" />
            <mxPoint x="660" y="670" as="targetPoint" />
          </mxGeometry>
        </mxCell>
        <mxCell id="gyVBBkJgk_4Mc_BeFqA9-78" value="passenger" style="swimlane;fontStyle=1;align=center;verticalAlign=top;childLayout=stackLayout;horizontal=1;startSize=26;horizontalStack=0;resizeParent=1;resizeParentMax=0;resizeLast=0;collapsible=1;marginBottom=0;" parent="1" vertex="1">
          <mxGeometry x="170" y="640" width="190" height="260" as="geometry" />
        </mxCell>
        <mxCell id="gyVBBkJgk_4Mc_BeFqA9-79" value="- flightNo:String&#xa;&#xa;- airline:String&#xa;&#xa;- capacity:String&#xa;&#xa;-seatsBooked:int&#xa;" style="text;strokeColor=none;fillColor=none;align=left;verticalAlign=top;spacingLeft=4;spacingRight=4;overflow=hidden;rotatable=0;points=[[0,0.5],[1,0.5]];portConstraint=eastwest;" parent="gyVBBkJgk_4Mc_BeFqA9-78" vertex="1">
          <mxGeometry y="26" width="190" height="104" as="geometry" />
        </mxCell>
        <mxCell id="gyVBBkJgk_4Mc_BeFqA9-80" value="" style="line;strokeWidth=1;fillColor=none;align=left;verticalAlign=middle;spacingTop=-1;spacingLeft=3;spacingRight=3;rotatable=0;labelPosition=right;points=[];portConstraint=eastwest;" parent="gyVBBkJgk_4Mc_BeFqA9-78" vertex="1">
          <mxGeometry y="130" width="190" height="30" as="geometry" />
        </mxCell>
        <mxCell id="gyVBBkJgk_4Mc_BeFqA9-81" value="+ getFlightDetails():String&#xa;&#xa;+availabilityOfSeats():boolean&#xa;&#xa;+updateNoOfSeatsBooked():void" style="text;strokeColor=none;fillColor=none;align=left;verticalAlign=top;spacingLeft=4;spacingRight=4;overflow=hidden;rotatable=0;points=[[0,0.5],[1,0.5]];portConstraint=eastwest;" parent="gyVBBkJgk_4Mc_BeFqA9-78" vertex="1">
          <mxGeometry y="160" width="190" height="100" as="geometry" />
        </mxCell>
        <mxCell id="gyVBBkJgk_4Mc_BeFqA9-82" value="" style="endArrow=diamondThin;endFill=0;endSize=24;html=1;" parent="1" edge="1">
          <mxGeometry width="160" relative="1" as="geometry">
            <mxPoint x="360" y="780" as="sourcePoint" />
            <mxPoint x="450" y="780" as="targetPoint" />
          </mxGeometry>
        </mxCell>
      </root>
    </mxGraphModel>
  </diagram>
</mxfile>
